<?xml version="1.0" standalone="no"?>
<!DOCTYPE svg PUBLIC "-//W3C//DTD SVG 20010904//EN"
 "http://www.w3.org/TR/2001/REC-SVG-20010904/DTD/svg10.dtd">
<svg version="1.0" xmlns="http://www.w3.org/2000/svg"
 width="260.000000pt" height="260.000000pt" viewBox="0 0 260.000000 260.000000"
 preserveAspectRatio="xMidYMid meet">
<metadata>
Created by potrace 1.11, written by Peter Selinger 2001-2013
</metadata>
<g transform="translate(0.000000,260.000000) scale(0.100000,-0.100000)"
fill="#000000" stroke="none">
<path d="M1131 2590 c-494 -70 -913 -416 -1065 -882 -48 -147 -60 -232 -60
-408 0 -180 13 -265 65 -421 l29 -86 -35 -64 c-63 -119 -80 -237 -50 -352 36
-139 127 -258 243 -316 162 -82 312 -80 471 4 l64 35 86 -29 c156 -52 241 -65
421 -65 122 0 187 4 249 18 273 59 474 167 667 360 193 193 301 394 360 667
14 62 18 127 18 249 0 122 -4 187 -18 249 -59 273 -167 474 -360 667 -190 189
-384 296 -646 355 -99 23 -340 33 -439 19z m429 -119 c460 -105 816 -466 916
-931 26 -118 26 -362 0 -480 -100 -465 -458 -828 -916 -931 -206 -46 -483 -30
-664 40 -26 11 -27 13 -13 29 25 29 66 118 82 179 54 206 -54 447 -243 542
-119 60 -233 75 -345 46 -61 -16 -150 -57 -179 -82 -16 -14 -18 -13 -29 13
-70 181 -86 458 -40 664 91 401 385 732 776 873 62 22 168 47 260 61 68 10
312 -4 395 -23z m-907 -1628 c80 -38 152 -110 191 -193 28 -59 31 -74 31 -160
0 -83 -4 -103 -29 -157 -15 -34 -39 -72 -52 -84 l-24 -23 -43 21 c-76 37 -215
144 -290 222 -70 74 -188 238 -202 281 -9 28 16 55 77 86 69 35 113 44 200 40
60 -3 93 -11 141 -33z m-429 -271 c88 -137 256 -292 443 -409 16 -10 13 -14
-32 -34 -41 -19 -67 -24 -145 -24 -86 0 -101 3 -160 31 -83 39 -155 111 -194
194 -28 59 -31 74 -31 160 0 78 5 104 24 145 20 45 24 48 34 32 7 -11 34 -53
61 -95z"/>
</g>
</svg>
